<svg width="126" height="128" viewBox="0 0 126 128" fill="none" xmlns="http://www.w3.org/2000/svg">
<path fill-rule="evenodd" clip-rule="evenodd" d="M91.7118 117.631C90.4868 121.14 89.1187 124.408 87.626 127.397C80.5049 123.792 72.452 121.761 63.9248 121.761C55.3974 121.761 47.3445 123.792 40.2233 127.397C38.6102 124.167 37.1427 120.611 35.8439 116.778V117.545C26.1907 117.665 17.3959 121.349 10.7144 127.341H4.00725C0.713511 127.341 -1.16868 123.583 0.804072 120.945L29.5628 82.4943C29.4017 79.6099 29.3188 76.6744 29.3188 73.6976C29.3188 32.9956 44.8124 0 63.9247 0C83.0369 0 98.5305 32.9956 98.5305 73.6976C98.5305 77.7158 98.3795 81.6589 98.0889 85.5025L124.598 120.945C126.571 123.583 124.688 127.341 121.395 127.341H114.687C108.506 121.797 100.517 118.23 91.7118 117.631ZM63.2838 64.0849C71.4242 64.0849 78.0233 57.4858 78.0233 49.3454C78.0233 41.205 71.4242 34.6058 63.2838 34.6058C55.1434 34.6058 48.5443 41.205 48.5443 49.3454C48.5443 57.4858 55.1434 64.0849 63.2838 64.0849Z" fill="#00759A"/>
<path fill-rule="evenodd" clip-rule="evenodd" d="M2.49153 127.01C1.6562 125.716 0.861013 124.393 0.107742 123.044C-0.0115765 124.702 0.936453 126.331 2.49153 127.01ZM64.0224 0C73.0651 0 81.2978 7.38641 87.4627 19.4807C79.9289 16.8251 71.8239 15.3804 63.3815 15.3804C55.5165 15.3804 47.9443 16.6342 40.854 18.9529C46.988 7.17188 55.1119 0 64.0224 0Z" fill="#AB5555"/>
</svg>
